<?xml version="1.0" encoding="utf-8"?>
<!-- Generator: Adobe Illustrator 24.1.2, SVG Export Plug-In . SVG Version: 6.00 Build 0)  -->
<svg version="1.1" id="Layer_1" xmlns="http://www.w3.org/2000/svg" xmlns:xlink="http://www.w3.org/1999/xlink" x="0px" y="0px"
	 viewBox="0 0 150 150" style="enable-background:new 0 0 150 150;" xml:space="preserve">
<style type="text/css">
	.st0{fill:#356859;}
	.st1{fill:#36006D;}
	.st2{fill:#66EA99;}
</style>
<g>
	<g>
		<path class="st0" d="M147.52,40.83c0.92-12.15-13.59-25.05-13.59-25.05s-12.9-14.51-25.05-13.59C96.73,3.1,73.95,44.6,75.71,56.28
			c0,0,1.41,9.26-3.06,14.88C68.18,76.78,53.51,90.3,53.51,90.3l2.95,2.95l2.95,2.95c0,0,13.52-14.67,19.14-19.14
			C84.16,72.59,93.43,74,93.43,74C105.12,75.76,146.61,52.98,147.52,40.83z M112.14,4.96c-1.18,0.02-2.34,0.13-3.48,0.43
			c-2.29,0.54-4.46,1.54-6.7,2.72c1.5-2.07,3.82-3.5,6.36-4.14c1.27-0.31,2.62-0.37,3.91-0.15c1.3,0.16,2.51,0.77,3.54,1.48
			C114.51,5.12,113.33,4.92,112.14,4.96z M88.1,47.08c-0.79,0.79-2.07,0.79-2.87,0c-0.79-0.79-0.79-2.07,0-2.87l30.26-30.26
			c0.79-0.79,2.07-0.79,2.87,0c0.79,0.79,0.79,2.07,0,2.87L88.1,47.08z M94.06,53.04c-0.79,0.79-2.07,0.79-2.87,0
			c-0.79-0.79-0.79-2.07,0-2.87l30.26-30.26c0.79-0.79,2.07-0.79,2.87,0c0.79,0.79,0.79,2.07,0,2.87L94.06,53.04z M100.02,59
			c-0.79,0.79-2.07,0.79-2.87,0c-0.79-0.79-0.79-2.07,0-2.87l30.26-30.26c0.79-0.79,2.07-0.79,2.87,0c0.79,0.79,0.79,2.07,0,2.87
			L100.02,59z M105.98,64.96c-0.79,0.79-2.07,0.79-2.87,0c-0.79-0.79-0.79-2.07,0-2.87l30.26-30.26c0.79-0.79,2.07-0.79,2.87,0
			c0.79,0.79,0.79,2.07,0,2.87L105.98,64.96z M132.36,54.73c-2.75,2.04-5.56,4.01-8.49,5.8c-2.92,1.79-5.89,3.51-9.01,4.94
			c2.82-1.95,5.62-3.89,8.39-5.87c2.76-2,5.53-3.98,8.24-6.03c2.73-2.04,5.41-4.09,7.85-6.41c1.21-1.17,2.33-2.42,3.29-3.8
			c0.96-1.36,1.83-2.87,1.92-4.59c0.24,1.74-0.54,3.44-1.32,4.96c-0.87,1.52-1.94,2.89-3.08,4.2
			C137.82,50.52,135.08,52.67,132.36,54.73z"/>
		<path class="st1" d="M66.07,96.26l-6.31-6.31l-6.31-6.31l-2.78,2.78c0,0-3.69,11.85-14.83,20.31
			c-11.14,8.47-40.99,28.52-31.19,38.32c9.8,9.8,29.85-20.05,38.32-31.19c8.47-11.14,20.31-14.83,20.31-14.83L66.07,96.26z
			 M19.34,122.98c-2.97,2.67-5.92,5.32-9,7.93c2.23-3.39,5.07-6.29,8.03-9.01c3-2.68,6.14-5.19,9.62-7.26
			C25.23,117.59,22.29,120.29,19.34,122.98z M14.59,135.12c1.2,1.2,1.2,3.15,0,4.36c-1.2,1.2-3.15,1.2-4.35,0
			c-1.2-1.2-1.2-3.15,0-4.36C11.44,133.92,13.39,133.92,14.59,135.12z M44.15,100.02c1.33-2.05,2.78-3.95,4.09-5.94
			c0.68-0.98,1.29-1.99,1.91-3.01c0.59-1.03,1.16-2.07,1.54-3.23c0.02,1.24-0.4,2.43-0.87,3.56c-0.47,1.14-1.09,2.2-1.77,3.22
			c-0.69,1.01-1.43,1.98-2.26,2.88C45.97,98.4,45.1,99.26,44.15,100.02z M8.34,145.67c-0.86-0.12-1.69-0.53-2.35-1.11
			c-0.64-0.63-1.08-1.25-1.45-2.03c-0.35-0.74-0.58-1.65-0.28-2.45c0.28,0.76,0.79,1.29,1.24,1.85c0.47,0.52,0.99,1.12,1.47,1.55
			c0.98,0.89,2.2,1.44,3.81,1.75C10.08,145.65,9.2,145.8,8.34,145.67z M53.87,101.04c-1.75,1.44-3.42,2.97-5.02,4.57
			c-3.22,3.18-6.2,6.6-9.01,10.17c-2.9,3.49-5.51,7.21-8.35,10.81c-1.43,1.79-2.92,3.54-4.51,5.2c-1.62,1.62-3.3,3.18-5.1,4.6
			c3.19-3.28,6.1-6.75,8.71-10.47c2.62-3.71,5.27-7.45,8.11-11.05c2.92-3.52,5.94-7.01,9.37-10.07c3.43-3.04,7.1-5.9,11.29-7.79
			C57.42,98.21,55.6,99.57,53.87,101.04z"/>
	</g>
	<g>
		<path class="st0" d="M49.91,14.33L49.91,14.33C36.19,3.88,19.86,1.98,11.2,10.64c-8.66,8.66-6.76,24.99,3.7,38.71l0,0
			c0,0,5.71,8.17,14.78,15.83l0.02-0.02c6.69,6.16,15.86,8.09,24.11,5.8l0.02,0.02c0,0,9.26-1.4,14.88,3.06
			c5.62,4.47,19.14,19.14,19.14,19.14l2.95-2.95l2.95-2.95c0,0-14.67-13.52-19.14-19.14c-4.47-5.62-3.06-14.88-3.06-14.88
			l-0.02-0.02c2.28-8.25,0.36-17.42-5.8-24.11l0.02-0.02C58.08,20.04,49.91,14.33,49.91,14.33z M57.77,66.9
			c-0.82,0.42-1.69,0.77-2.58,1.05c-1.8,0.5-3.68,0.71-5.53,0.73c-1.87,0.05-3.69-0.11-5.55-0.37c-0.94-0.16-1.88-0.33-2.77-0.64
			c-0.92-0.25-1.79-0.59-2.66-0.95c-3.45-1.48-6.55-3.57-9.35-5.95c-2.82-2.36-5.35-5.04-7.52-7.97c2.72,2.42,5.55,4.68,8.45,6.78
			c2.92,2.07,5.94,4,9.18,5.35c1.6,0.72,3.27,1.24,4.97,1.56c1.72,0.34,3.52,0.54,5.28,0.67c1.77,0.11,3.54,0.11,5.29-0.15
			c0.87-0.13,1.74-0.32,2.59-0.6c0.85-0.25,1.72-0.7,2.66-0.64C59.33,65.94,58.6,66.52,57.77,66.9z M58.69,25.47
			c1.2,1.45,2.45,2.85,3.6,4.33c-1.47-1.18-2.84-2.44-4.26-3.65l-4.29-3.55c-2.95-2.24-5.87-4.5-9.03-6.38
			c-3.09-1.98-6.37-3.64-9.8-4.92c-1.72-0.63-3.47-1.17-5.27-1.53c-1.8-0.42-3.64-0.6-5.51-0.49c3.66-0.96,7.62-0.45,11.25,0.58
			c3.67,1.03,7.14,2.7,10.35,4.71c1.64,0.96,3.14,2.12,4.67,3.22c1.48,1.17,2.91,2.4,4.32,3.65C56.07,22.78,57.41,24.1,58.69,25.47z
			"/>
		<path class="st2" d="M93.8,80.62l-6.31,6.31l-6.31,6.31l2.78,2.78c0,0,11.85,3.69,20.31,14.83c8.47,11.14,28.52,40.99,38.32,31.19
			c9.8-9.8-20.05-29.85-31.19-38.32C100.27,95.25,96.58,83.4,96.58,83.4L93.8,80.62z M132.67,132.1c1.2-1.2,3.15-1.2,4.36,0
			c1.2,1.2,1.2,3.15,0,4.36c-1.2,1.2-3.15,1.2-4.35,0C131.46,135.25,131.46,133.3,132.67,132.1z M120.9,126.98
			c2.67,2.97,5.32,5.92,7.93,9c-3.39-2.23-6.29-5.07-9.01-8.03c-2.68-3-5.19-6.14-7.26-9.62
			C115.51,121.09,118.2,124.03,120.9,126.98z M97.94,102.17c-2.05-1.33-3.95-2.78-5.94-4.09c-0.98-0.68-1.99-1.29-3.01-1.91
			c-1.03-0.59-2.07-1.16-3.23-1.54c1.24-0.02,2.43,0.4,3.56,0.87c1.14,0.47,2.2,1.09,3.22,1.77c1.01,0.69,1.98,1.43,2.88,2.26
			C96.32,100.35,97.18,101.22,97.94,102.17z M143.59,137.98c-0.12,0.86-0.53,1.69-1.11,2.35c-0.63,0.64-1.25,1.08-2.03,1.45
			c-0.74,0.35-1.65,0.58-2.45,0.28c0.76-0.28,1.29-0.79,1.85-1.24c0.52-0.47,1.12-0.99,1.55-1.47c0.89-0.98,1.44-2.2,1.75-3.81
			C143.57,136.24,143.72,137.12,143.59,137.98z M98.96,92.45c1.44,1.75,2.97,3.42,4.57,5.02c3.18,3.22,6.6,6.2,10.17,9.01
			c3.49,2.9,7.21,5.51,10.81,8.35c1.79,1.43,3.54,2.92,5.2,4.51c1.62,1.62,3.18,3.3,4.6,5.1c-3.28-3.19-6.75-6.1-10.47-8.71
			c-3.71-2.62-7.45-5.27-11.05-8.11c-3.52-2.92-7.01-5.94-10.07-9.37c-3.04-3.43-5.9-7.1-7.79-11.29
			C96.12,88.9,97.49,90.72,98.96,92.45z"/>
	</g>
</g>
</svg>
