<?xml version="1.0" encoding="utf-8"?>
<!-- Generator: Adobe Illustrator 24.1.2, SVG Export Plug-In . SVG Version: 6.00 Build 0)  -->
<svg version="1.1" id="Layer_1" xmlns="http://www.w3.org/2000/svg" xmlns:xlink="http://www.w3.org/1999/xlink" x="0px" y="0px"
	 viewBox="0 0 300 150" style="enable-background:new 0 0 300 150;" xml:space="preserve">
<style type="text/css">
	.st0{fill:#356859;}
	.st1{fill:#36006D;}
	.st2{fill:#66EA99;}
	.st3{fill:#66AE99;}
</style>
<g>
	<g>
		<path class="st0" d="M118.21,46.1c0.74-9.75-10.91-20.1-10.91-20.1S96.94,14.35,87.2,15.09c-9.75,0.74-28.03,34.03-26.61,43.41
			c0,0,1.13,7.43-2.46,11.94C54.54,74.94,42.76,85.8,42.76,85.8l2.37,2.37l2.37,2.37c0,0,10.85-11.77,15.36-15.36
			c4.51-3.59,11.94-2.46,11.94-2.46C84.18,74.13,117.47,55.85,118.21,46.1z M89.81,17.31c-0.94,0.02-1.88,0.1-2.79,0.35
			c-1.84,0.43-3.58,1.23-5.37,2.18c1.21-1.66,3.07-2.81,5.1-3.32c1.02-0.25,2.1-0.29,3.14-0.12c1.05,0.13,2.01,0.62,2.84,1.18
			C91.71,17.44,90.77,17.28,89.81,17.31z M70.52,51.11c-0.63,0.64-1.66,0.64-2.3,0c-0.63-0.63-0.63-1.66,0-2.3L92.5,24.53
			c0.63-0.63,1.66-0.63,2.3,0c0.63,0.63,0.63,1.66,0,2.3L70.52,51.11z M75.3,55.89c-0.63,0.63-1.66,0.63-2.3,0
			c-0.63-0.63-0.63-1.66,0-2.3l24.28-24.28c0.63-0.63,1.66-0.63,2.3,0c0.63,0.63,0.63,1.66,0,2.3L75.3,55.89z M80.09,60.67
			c-0.63,0.63-1.66,0.63-2.3,0c-0.63-0.63-0.63-1.66,0-2.3l24.28-24.28c0.63-0.63,1.66-0.63,2.3,0c0.63,0.63,0.63,1.66,0,2.3
			L80.09,60.67z M84.87,65.46c-0.63,0.63-1.66,0.63-2.3,0c-0.63-0.63-0.63-1.66,0-2.3l24.28-24.28c0.63-0.63,1.66-0.63,2.3,0
			c0.63,0.63,0.63,1.66,0,2.3L84.87,65.46z M106.04,57.25c-2.21,1.64-4.46,3.22-6.81,4.65c-2.34,1.44-4.73,2.82-7.23,3.96
			c2.26-1.57,4.51-3.12,6.73-4.71c2.22-1.6,4.43-3.19,6.61-4.84c2.19-1.63,4.34-3.28,6.3-5.15c0.97-0.94,1.87-1.94,2.64-3.05
			c0.77-1.09,1.47-2.3,1.54-3.68c0.2,1.4-0.43,2.76-1.06,3.98c-0.69,1.22-1.56,2.32-2.47,3.37
			C110.42,53.87,108.22,55.59,106.04,57.25z"/>
		<path class="st1" d="M52.84,90.58l-5.06-5.06l-5.06-5.06l-2.23,2.23c0,0-2.96,9.51-11.9,16.3c-8.94,6.79-32.9,22.88-25.03,30.75
			c7.87,7.87,23.96-16.09,30.75-25.03c6.79-8.94,16.3-11.9,16.3-11.9L52.84,90.58z M15.35,112.02c-2.38,2.14-4.75,4.27-7.23,6.36
			c1.79-2.72,4.07-5.05,6.44-7.23c2.41-2.15,4.93-4.17,7.72-5.83C20.07,107.7,17.71,109.86,15.35,112.02z M11.53,121.76
			c0.96,0.96,0.96,2.53,0,3.49c-0.97,0.96-2.53,0.96-3.49,0c-0.97-0.97-0.97-2.53,0-3.49C9,120.8,10.57,120.8,11.53,121.76z
			 M35.25,93.6c1.07-1.64,2.23-3.17,3.28-4.77c0.55-0.78,1.04-1.6,1.53-2.41c0.47-0.83,0.93-1.66,1.24-2.59
			c0.01,0.99-0.32,1.95-0.7,2.86c-0.38,0.91-0.87,1.77-1.42,2.58c-0.55,0.81-1.15,1.59-1.81,2.31C36.71,92.3,36.02,92.98,35.25,93.6
			z M6.52,130.23c-0.69-0.1-1.35-0.43-1.88-0.89c-0.52-0.5-0.87-1.01-1.16-1.63c-0.28-0.59-0.46-1.33-0.22-1.97
			c0.22,0.61,0.63,1.03,0.99,1.48c0.38,0.42,0.79,0.9,1.18,1.24c0.79,0.72,1.77,1.15,3.06,1.4C7.91,130.21,7.2,130.33,6.52,130.23z
			 M43.05,94.41c-1.41,1.15-2.75,2.38-4.03,3.67c-2.59,2.55-4.97,5.3-7.23,8.16c-2.33,2.8-4.42,5.78-6.7,8.67
			c-1.15,1.43-2.34,2.84-3.62,4.17c-1.3,1.3-2.65,2.55-4.09,3.69c2.56-2.63,4.89-5.42,6.99-8.4c2.1-2.97,4.23-5.98,6.5-8.86
			c2.35-2.82,4.76-5.63,7.52-8.08c2.75-2.44,5.7-4.73,9.06-6.25C45.9,92.14,44.44,93.24,43.05,94.41z"/>
	</g>
	<g>
		<path class="st0" d="M39.88,24.83L39.88,24.83c-11.01-8.39-24.11-9.91-31.06-2.97c-6.95,6.95-5.42,20.05,2.97,31.06l0,0
			c0,0,4.58,6.55,11.86,12.7l0.02-0.02c5.37,4.95,12.73,6.49,19.35,4.66l0.01,0.01c0,0,7.43-1.13,11.94,2.46
			c4.51,3.59,15.36,15.36,15.36,15.36l2.37-2.37l2.37-2.37c0,0-11.77-10.85-15.36-15.36c-3.59-4.51-2.46-11.94-2.46-11.94
			l-0.01-0.01c1.83-6.62,0.29-13.98-4.66-19.35l0.02-0.02C46.43,29.42,39.88,24.83,39.88,24.83z M46.18,67.02
			c-0.66,0.34-1.36,0.62-2.07,0.84c-1.45,0.4-2.95,0.57-4.44,0.59c-1.5,0.04-2.96-0.09-4.45-0.3c-0.75-0.13-1.51-0.27-2.22-0.51
			c-0.73-0.2-1.44-0.47-2.13-0.76c-2.77-1.19-5.25-2.87-7.5-4.77c-2.26-1.89-4.29-4.04-6.04-6.4c2.18,1.95,4.45,3.75,6.78,5.44
			c2.34,1.66,4.77,3.21,7.37,4.29c1.28,0.58,2.63,0.99,3.98,1.25c1.38,0.28,2.82,0.43,4.24,0.54c1.42,0.09,2.84,0.09,4.24-0.12
			c0.7-0.1,1.4-0.26,2.08-0.48c0.68-0.2,1.38-0.56,2.13-0.51C47.43,66.25,46.85,66.71,46.18,67.02z M46.92,33.77
			c0.96,1.16,1.96,2.29,2.89,3.48c-1.18-0.95-2.28-1.96-3.42-2.93l-3.45-2.85c-2.36-1.8-4.71-3.61-7.24-5.12
			c-2.48-1.59-5.12-2.92-7.87-3.95c-1.38-0.5-2.79-0.94-4.23-1.23c-1.44-0.34-2.92-0.48-4.42-0.39c2.94-0.77,6.11-0.36,9.03,0.47
			c2.95,0.83,5.73,2.17,8.31,3.78c1.32,0.77,2.52,1.7,3.75,2.59c1.19,0.94,2.34,1.93,3.47,2.93C44.82,31.61,45.9,32.67,46.92,33.77z
			"/>
		<path class="st2" d="M75.1,78.03l-5.06,5.06l-5.06,5.06l2.23,2.23c0,0,9.51,2.96,16.3,11.9c6.79,8.94,22.88,32.9,30.75,25.03
			c7.87-7.87-16.09-23.96-25.03-30.75c-8.94-6.79-11.9-16.3-11.9-16.3L75.1,78.03z M106.28,119.34c0.97-0.97,2.53-0.96,3.49,0
			c0.97,0.97,0.97,2.53,0,3.49c-0.96,0.96-2.53,0.96-3.49,0C105.32,121.87,105.32,120.3,106.28,119.34z M96.84,115.22
			c2.15,2.38,4.27,4.75,6.36,7.23c-2.72-1.79-5.05-4.07-7.23-6.44c-2.15-2.41-4.17-4.93-5.83-7.72
			C92.52,110.5,94.68,112.86,96.84,115.22z M78.42,95.32c-1.64-1.07-3.17-2.23-4.77-3.28c-0.78-0.55-1.6-1.04-2.41-1.53
			c-0.83-0.47-1.66-0.93-2.59-1.24c0.99-0.01,1.95,0.32,2.86,0.7c0.91,0.38,1.77,0.87,2.58,1.42c0.81,0.55,1.59,1.15,2.31,1.81
			C77.12,93.86,77.8,94.55,78.42,95.32z M115.05,124.05c-0.1,0.69-0.43,1.35-0.89,1.88c-0.5,0.52-1.01,0.87-1.63,1.16
			c-0.59,0.28-1.33,0.46-1.97,0.22c0.61-0.22,1.03-0.63,1.48-0.99c0.42-0.38,0.9-0.79,1.24-1.18c0.72-0.79,1.15-1.77,1.4-3.06
			C115.03,122.66,115.15,123.37,115.05,124.05z M79.23,87.52c1.15,1.41,2.38,2.75,3.67,4.03c2.55,2.59,5.3,4.97,8.16,7.23
			c2.8,2.33,5.78,4.42,8.67,6.7c1.43,1.15,2.84,2.34,4.17,3.62c1.3,1.3,2.55,2.65,3.69,4.09c-2.63-2.56-5.42-4.89-8.4-6.99
			c-2.97-2.1-5.98-4.23-8.86-6.5c-2.82-2.35-5.63-4.76-8.08-7.52c-2.44-2.75-4.73-5.7-6.25-9.06
			C76.96,84.67,78.06,86.13,79.23,87.52z"/>
	</g>
</g>
<g>
	<g>
		<path class="st1" d="M135.1,41.18c2.6-0.53,6.32-0.83,9.86-0.83c5.49,0,9.03,1,11.51,3.25c2.01,1.77,3.13,4.49,3.13,7.56
			c0,5.25-3.31,8.73-7.5,10.15v0.18c3.07,1.06,4.9,3.9,5.84,8.03c1.3,5.55,2.24,9.39,3.07,10.92h-5.31
			c-0.65-1.12-1.53-4.55-2.66-9.5c-1.18-5.49-3.31-7.56-7.97-7.73h-4.84v17.24h-5.13V41.18z M140.24,59.3h5.25
			c5.49,0,8.97-3.01,8.97-7.56c0-5.14-3.72-7.38-9.15-7.44c-2.48,0-4.25,0.23-5.08,0.47V59.3z"/>
		<path class="st1" d="M187.46,61.78h-15.46v14.34h17.24v4.31h-22.37V40.65h21.49v4.31h-16.35v12.57h15.46V61.78z"/>
		<path class="st1" d="M223.69,79.13c-1.89,0.94-5.67,1.89-10.51,1.89c-11.21,0-19.66-7.08-19.66-20.13
			c0-12.45,8.44-20.9,20.78-20.9c4.96,0,8.09,1.06,9.44,1.77l-1.24,4.19c-1.95-0.94-4.72-1.65-8.03-1.65
			c-9.33,0-15.52,5.96-15.52,16.41c0,9.74,5.61,16,15.29,16c3.13,0,6.32-0.65,8.38-1.65L223.69,79.13z"/>
		<path class="st1" d="M235.26,40.65v39.78h-5.13V40.65H235.26z"/>
		<path class="st1" d="M244.23,41.12c2.48-0.41,5.73-0.77,9.86-0.77c5.08,0,8.8,1.18,11.16,3.31c2.18,1.89,3.48,4.78,3.48,8.32
			c0,3.6-1.06,6.43-3.07,8.5c-2.72,2.89-7.14,4.37-12.16,4.37c-1.53,0-2.95-0.06-4.13-0.35v15.94h-5.13V41.12z M249.36,60.31
			c1.12,0.29,2.54,0.41,4.25,0.41c6.2,0,9.98-3.01,9.98-8.5c0-5.25-3.72-7.79-9.38-7.79c-2.24,0-3.96,0.18-4.84,0.41V60.31z"/>
		<path class="st1" d="M296.23,61.78h-15.46v14.34H298v4.31h-22.37V40.65h21.49v4.31h-16.35v12.57h15.46V61.78z"/>
	</g>
	<g>
		<g>
			<path class="st3" d="M147.8,110.18c-0.79,0.39-2.36,0.79-4.37,0.79c-4.67,0-8.18-2.95-8.18-8.37c0-5.18,3.51-8.69,8.64-8.69
				c2.06,0,3.36,0.44,3.93,0.74l-0.52,1.74c-0.81-0.39-1.96-0.69-3.34-0.69c-3.88,0-6.46,2.48-6.46,6.83c0,4.05,2.33,6.65,6.36,6.65
				c1.3,0,2.63-0.27,3.49-0.69L147.8,110.18z"/>
			<path class="st3" d="M164.11,102.28c0,5.7-3.46,8.72-7.68,8.72c-4.37,0-7.44-3.39-7.44-8.4c0-5.25,3.27-8.69,7.68-8.69
				C161.19,93.91,164.11,97.37,164.11,102.28z M151.27,102.55c0,3.54,1.92,6.7,5.28,6.7c3.39,0,5.3-3.12,5.3-6.88
				c0-3.29-1.72-6.73-5.28-6.73C153.04,95.65,151.27,98.92,151.27,102.55z"/>
			<path class="st3" d="M181.03,102.28c0,5.7-3.46,8.72-7.68,8.72c-4.37,0-7.44-3.39-7.44-8.4c0-5.25,3.27-8.69,7.68-8.69
				C178.11,93.91,181.03,97.37,181.03,102.28z M168.19,102.55c0,3.54,1.92,6.7,5.28,6.7c3.39,0,5.3-3.12,5.3-6.88
				c0-3.29-1.72-6.73-5.28-6.73C169.96,95.65,168.19,98.92,168.19,102.55z"/>
			<path class="st3" d="M183.81,94.18h2.14v7.98h0.07c0.44-0.64,0.88-1.23,1.3-1.77l5.06-6.21h2.65l-5.99,7.02l6.46,9.53h-2.53
				l-5.45-8.13l-1.57,1.82v6.31h-2.14V94.18z"/>
			<path class="st3" d="M199.25,94.18v16.55h-2.14V94.18H199.25z"/>
			<path class="st3" d="M202.99,110.72V94.18h2.33l5.3,8.37c1.23,1.94,2.19,3.68,2.97,5.38l0.05-0.02c-0.2-2.21-0.25-4.22-0.25-6.8
				v-6.92h2.01v16.55h-2.16l-5.25-8.4c-1.15-1.84-2.26-3.73-3.09-5.52l-0.07,0.02c0.12,2.09,0.17,4.08,0.17,6.83v7.07H202.99z"/>
			<path class="st3" d="M231.74,109.99c-0.96,0.34-2.85,0.91-5.08,0.91c-2.5,0-4.57-0.64-6.19-2.19c-1.42-1.37-2.31-3.58-2.31-6.16
				c0.02-4.93,3.41-8.54,8.96-8.54c1.92,0,3.41,0.42,4.13,0.76l-0.52,1.74c-0.88-0.39-1.99-0.71-3.66-0.71
				c-4.03,0-6.65,2.5-6.65,6.65c0,4.2,2.53,6.68,6.38,6.68c1.4,0,2.36-0.2,2.85-0.44v-4.93h-3.36v-1.72h5.45V109.99z"/>
		</g>
		<g>
			<path class="st2" d="M147.8,110.18c-0.79,0.39-2.36,0.79-4.37,0.79c-4.67,0-8.18-2.95-8.18-8.37c0-5.18,3.51-8.69,8.64-8.69
				c2.06,0,3.36,0.44,3.93,0.74l-0.52,1.74c-0.81-0.39-1.96-0.69-3.34-0.69c-3.88,0-6.46,2.48-6.46,6.83c0,4.05,2.33,6.65,6.36,6.65
				c1.3,0,2.63-0.27,3.49-0.69L147.8,110.18z"/>
			<path class="st2" d="M164.11,102.28c0,5.7-3.46,8.72-7.68,8.72c-4.37,0-7.44-3.39-7.44-8.4c0-5.25,3.27-8.69,7.68-8.69
				C161.19,93.91,164.11,97.37,164.11,102.28z M151.27,102.55c0,3.54,1.92,6.7,5.28,6.7c3.39,0,5.3-3.12,5.3-6.88
				c0-3.29-1.72-6.73-5.28-6.73C153.04,95.65,151.27,98.92,151.27,102.55z"/>
			<path class="st2" d="M181.03,102.28c0,5.7-3.46,8.72-7.68,8.72c-4.37,0-7.44-3.39-7.44-8.4c0-5.25,3.27-8.69,7.68-8.69
				C178.11,93.91,181.03,97.37,181.03,102.28z M168.19,102.55c0,3.54,1.92,6.7,5.28,6.7c3.39,0,5.3-3.12,5.3-6.88
				c0-3.29-1.72-6.73-5.28-6.73C169.96,95.65,168.19,98.92,168.19,102.55z"/>
			<path class="st2" d="M183.81,94.18h2.14v7.98h0.07c0.44-0.64,0.88-1.23,1.3-1.77l5.06-6.21h2.65l-5.99,7.02l6.46,9.53h-2.53
				l-5.45-8.13l-1.57,1.82v6.31h-2.14V94.18z"/>
			<path class="st2" d="M199.25,94.18v16.55h-2.14V94.18H199.25z"/>
			<path class="st2" d="M202.99,110.72V94.18h2.33l5.3,8.37c1.23,1.94,2.19,3.68,2.97,5.38l0.05-0.02c-0.2-2.21-0.25-4.22-0.25-6.8
				v-6.92h2.01v16.55h-2.16l-5.25-8.4c-1.15-1.84-2.26-3.73-3.09-5.52l-0.07,0.02c0.12,2.09,0.17,4.08,0.17,6.83v7.07H202.99z"/>
			<path class="st2" d="M231.74,109.99c-0.96,0.34-2.85,0.91-5.08,0.91c-2.5,0-4.57-0.64-6.19-2.19c-1.42-1.37-2.31-3.58-2.31-6.16
				c0.02-4.93,3.41-8.54,8.96-8.54c1.92,0,3.41,0.42,4.13,0.76l-0.52,1.74c-0.88-0.39-1.99-0.71-3.66-0.71
				c-4.03,0-6.65,2.5-6.65,6.65c0,4.2,2.53,6.68,6.38,6.68c1.4,0,2.36-0.2,2.85-0.44v-4.93h-3.36v-1.72h5.45V109.99z"/>
		</g>
	</g>
</g>
</svg>
